TITLE ""
FILE "1Q_t_0859-0868.mp3" MP3
  TRACK 01 AUDIO
    TITLE "1Q_t_0859-0868_01"
    INDEX 01 00:00:00
  TRACK 02 AUDIO
    TITLE "1Q_t_0859-0868_02"
    INDEX 01 00:01:14
  TRACK 03 AUDIO
    TITLE "1Q_t_0859-0868_03"
    INDEX 01 00:01:23
  TRACK 04 AUDIO
    TITLE "1Q_t_0859-0868_04"
    INDEX 01 00:02:19
  TRACK 05 AUDIO
    TITLE "1Q_t_0859-0868_05"
    INDEX 01 00:02:25
  TRACK 06 AUDIO
    TITLE "1Q_t_0859-0868_06"
    INDEX 01 00:07:63
  TRACK 07 AUDIO
    TITLE "1Q_t_0859-0868_07"
    INDEX 01 00:08:35
  TRACK 08 AUDIO
    TITLE "1Q_t_0859-0868_08"
    INDEX 01 00:09:46
  TRACK 09 AUDIO
    TITLE "1Q_t_0859-0868_09"
    INDEX 01 00:09:56
  TRACK 10 AUDIO
    TITLE "1Q_t_0859-0868_10"
    INDEX 01 00:11:75
  TRACK 11 AUDIO
    TITLE "1Q_t_0859-0868_11"
    INDEX 01 00:12:08
  TRACK 12 AUDIO
    TITLE "1Q_t_0859-0868_12"
    INDEX 01 00:17:56
  TRACK 13 AUDIO
    TITLE "1Q_t_0859-0868_13"
    INDEX 01 00:18:26
  TRACK 14 AUDIO
    TITLE "1Q_t_0859-0868_14"
    INDEX 01 00:19:45
  TRACK 15 AUDIO
    TITLE "1Q_t_0859-0868_15"
    INDEX 01 00:19:57
  TRACK 16 AUDIO
    TITLE "1Q_t_0859-0868_16"
    INDEX 01 00:22:02
  TRACK 17 AUDIO
    TITLE "1Q_t_0859-0868_17"
    INDEX 01 00:22:08
  TRACK 18 AUDIO
    TITLE "1Q_t_0859-0868_18"
    INDEX 01 00:28:09
  TRACK 19 AUDIO
    TITLE "1Q_t_0859-0868_19"
    INDEX 01 00:28:54
  TRACK 20 AUDIO
    TITLE "1Q_t_0859-0868_20"
    INDEX 01 00:29:73
  TRACK 21 AUDIO
    TITLE "1Q_t_0859-0868_21"
    INDEX 01 00:30:11
  TRACK 22 AUDIO
    TITLE "1Q_t_0859-0868_22"
    INDEX 01 00:32:04
  TRACK 23 AUDIO
    TITLE "1Q_t_0859-0868_23"
    INDEX 01 00:32:10
  TRACK 24 AUDIO
    TITLE "1Q_t_0859-0868_24"
    INDEX 01 00:38:36
  TRACK 25 AUDIO
    TITLE "1Q_t_0859-0868_25"
    INDEX 01 00:39:08
  TRACK 26 AUDIO
    TITLE "1Q_t_0859-0868_26"
    INDEX 01 00:40:12
  TRACK 27 AUDIO
    TITLE "1Q_t_0859-0868_27"
    INDEX 01 00:40:22
  TRACK 28 AUDIO
    TITLE "1Q_t_0859-0868_28"
    INDEX 01 00:41:21
  TRACK 29 AUDIO
    TITLE "1Q_t_0859-0868_29"
    INDEX 01 00:41:27
  TRACK 30 AUDIO
    TITLE "1Q_t_0859-0868_30"
    INDEX 01 00:47:39
  TRACK 31 AUDIO
    TITLE "1Q_t_0859-0868_31"
    INDEX 01 00:48:09
  TRACK 32 AUDIO
    TITLE "1Q_t_0859-0868_32"
    INDEX 01 00:49:30
  TRACK 33 AUDIO
    TITLE "1Q_t_0859-0868_33"
    INDEX 01 00:49:40
  TRACK 34 AUDIO
    TITLE "1Q_t_0859-0868_34"
    INDEX 01 00:50:55
  TRACK 35 AUDIO
    TITLE "1Q_t_0859-0868_35"
    INDEX 01 00:50:61
  TRACK 36 AUDIO
    TITLE "1Q_t_0859-0868_36"
    INDEX 01 00:57:02
  TRACK 37 AUDIO
    TITLE "1Q_t_0859-0868_37"
    INDEX 01 00:57:47
  TRACK 38 AUDIO
    TITLE "1Q_t_0859-0868_38"
    INDEX 01 00:58:53
  TRACK 39 AUDIO
    TITLE "1Q_t_0859-0868_39"
    INDEX 01 00:58:74
  TRACK 40 AUDIO
    TITLE "1Q_t_0859-0868_40"
    INDEX 01 01:01:61
  TRACK 41 AUDIO
    TITLE "1Q_t_0859-0868_41"
    INDEX 01 01:01:67
  TRACK 42 AUDIO
    TITLE "1Q_t_0859-0868_42"
    INDEX 01 01:08:20
  TRACK 43 AUDIO
    TITLE "1Q_t_0859-0868_43"
    INDEX 01 01:08:67
  TRACK 44 AUDIO
    TITLE "1Q_t_0859-0868_44"
    INDEX 01 01:10:17
  TRACK 45 AUDIO
    TITLE "1Q_t_0859-0868_45"
    INDEX 01 01:10:31
  TRACK 46 AUDIO
    TITLE "1Q_t_0859-0868_46"
    INDEX 01 01:11:52
  TRACK 47 AUDIO
    TITLE "1Q_t_0859-0868_47"
    INDEX 01 01:11:57
  TRACK 48 AUDIO
    TITLE "1Q_t_0859-0868_48"
    INDEX 01 01:19:02
  TRACK 49 AUDIO
    TITLE "1Q_t_0859-0868_49"
    INDEX 01 01:19:47
  TRACK 50 AUDIO
    TITLE "1Q_t_0859-0868_50"
    INDEX 01 01:20:66
  TRACK 51 AUDIO
    TITLE "1Q_t_0859-0868_51"
    INDEX 01 01:21:01
  TRACK 52 AUDIO
    TITLE "1Q_t_0859-0868_52"
    INDEX 01 01:23:57
  TRACK 53 AUDIO
    TITLE "1Q_t_0859-0868_53"
    INDEX 01 01:23:63
  TRACK 54 AUDIO
    TITLE "1Q_t_0859-0868_54"
    INDEX 01 01:29:65
  TRACK 55 AUDIO
    TITLE "1Q_t_0859-0868_55"
    INDEX 01 01:30:33
  TRACK 56 AUDIO
    TITLE "1Q_t_0859-0868_56"
    INDEX 01 01:31:46
  TRACK 57 AUDIO
    TITLE "1Q_t_0859-0868_57"
    INDEX 01 01:31:56
  TRACK 58 AUDIO
    TITLE "1Q_t_0859-0868_58"
    INDEX 01 01:33:71
  TRACK 59 AUDIO
    TITLE "1Q_t_0859-0868_59"
    INDEX 01 01:34:02
  TRACK 60 AUDIO
    TITLE "1Q_t_0859-0868_60"
    INDEX 01 01:38:56
